<svg xmlns="http://www.w3.org/2000/svg" viewBox="-70 -70 1832 2484" width="1832" height="2484" role="img" aria-label="Logo enye">
  <g fill="#2E7D32" fill-rule="nonzero" stroke="none">
  <path d="M 428.3,2 c -1.1,1.2 -4,2 -8,2 c -4,0 -6.9,0.8 -8,2 c -1.2,1.5 -4.7,2 -14,2 c -9.3,0 -12.8,0.5 -14,2 c -0.9,1.1 -2.7,2 -4,2 c -1.3,0 -3.1,0.9 -4,2 c -1.1,1.2 -4,2 -8,2 c -4,0 -6.9,0.8 -8,2 c -1.1,1.2 -4,2 -8,2 c -4,0 -6.9,0.8 -8,2 c -0.9,1.1 -2.7,2 -4,2 c -1.3,0 -3.1,0.9 -4,2 c -0.9,1.1 -2.7,2 -4,2 c -1.3,0 -3.1,0.9 -4,2 c -0.9,1.1 -3.6,2 -6,2 c -2.4,0 -5.1,0.9 -6,2 c -0.9,1.1 -2.7,2 -4,2 c -1.3,0 -3.1,0.9 -4,2 c -0.9,1.1 -2.7,2 -4,2 c -1.3,0 -3.1,0.9 -4,2 c -0.9,1.1 -2.7,2 -4,2 c -1.3,0 -3.1,0.9 -4,2 c -0.9,1.1 -3.6,2 -5.9,2 c -3.1,0 -5.5,1.2 -8.1,4 c -2.1,2.1 -4.8,4 -6,4 c -1.2,0 -3.9,1.7 -6,4 c -2.1,2.1 -4.8,4 -6.1,4 c -1.2,0 -2.9,0.9 -3.9,2 c -0.9,1.1 -2.7,2 -4,2 c -1.3,0 -3.1,0.9 -4,2 c -0.9,1.1 -2.7,2 -3.9,2 c -1.2,0 -4.9,2.7 -8.1,6 c -3.2,3.3 -6.9,6 -8.1,6 c -1.2,0 -2.9,0.9 -3.9,2 c -0.9,1.1 -2.7,2 -3.9,2 c -1.2,0 -4.9,2.7 -8.1,6 c -3.2,3.3 -6.8,6 -8,6 c -1.1,0 -6.5,4.5 -12,10 c -5.5,5.5 -10.9,10 -12,10 c -1.2,0 -3.9,1.7 -6,4 c -2.1,2.1 -4.8,4 -6,4 c -1.1,0 -7.5,5.3 -14,12 c -6.5,6.5 -12.9,12 -14.1,12 c -2.7,0 -7.5,5.2 -8.1,8.7 c -0.3,1.5 -1.6,2.8 -3.2,3.1 c -3.5,0.5 -24.1,21.3 -24.8,24.9 c -0.3,1.5 -1.6,2.8 -3.1,3.1 c -3.5,0.7 -12.7,9.5 -12.7,12.3 c 0,1.1 -18.9,20.9 -42,44 c -42,42 -42,42 -42,50 c 0,8 0.1,8.1 7.1,15.1 c 3.9,3.9 8,6.9 9.1,6.9 c 1.1,0 3.7,1.7 5.9,4 c 2.1,2.1 4.8,4 6,4 c 1.2,0 4.8,2.7 8,6 c 3.2,3.3 6.8,6 8,6 c 1.2,0 4.8,2.7 8,6 c 3.2,3.3 6.8,6 8,6 c 1.2,0 5.6,3.6 10,8 c 4.4,4.4 8.9,8 10.1,8 c 1.2,0 2.9,0.9 3.9,2 c 0.9,1.1 2.7,2 3.9,2 c 1.2,0 4.8,2.7 8.1,6 c 3.2,3.2 6.9,6 8.5,6.3 c 1.6,0.3 2.9,1.7 3.5,3.7 c 0.4,2 1.9,3.5 3.5,3.7 c 1.5,0.3 6.3,4 10.5,8.3 c 4.4,4.4 8.9,8 10,8 c 1.2,0 3.9,1.7 6,4 c 2.1,2.1 4.8,4 6,4 c 1.2,0 4.8,2.7 8,6 c 3.2,3.3 6.8,6 8,6 c 1.2,0 3.9,1.7 6,4 c 2.1,2.1 4.8,4 6,4 c 1.2,0 4.8,2.7 8,6 c 3.2,3.3 6.8,6 8,6 c 1.2,0 4.8,2.7 8,6 c 3.2,3.3 6.8,6 8,6 c 1.2,0 4.8,2.7 8,6 c 3.2,3.3 6.9,6 8.1,6 c 1.2,0 2.9,0.9 3.9,2 c 0.9,1.1 2.7,2 3.9,2 c 1.2,0 4.9,2.7 8.1,6 c 6,6.1 6,6.1 14.7,5.7 c 7.6,-0.4 8.7,-0.8 9.1,-3.2 c 0.3,-1.5 3.1,-5.3 6.3,-8.5 c 3.3,-3.3 6,-6.8 6,-8 c 0,-2.8 5.1,-7.6 8.7,-8.3 c 1.5,-0.3 2.8,-1.6 3.1,-3.1 c 0.7,-3.3 73.6,-76.7 76.3,-76.7 c 1.2,0 5.6,-3.6 10,-8 c 4.4,-4.4 8.9,-8 10,-8 c 1.2,0 3.9,-1.9 6,-4 c 2.1,-2.3 4.8,-4 6.1,-4 c 1.2,0 2.9,-0.9 3.9,-2 c 0.9,-1.1 2.7,-2 3.9,-2 c 1.3,0 4,-1.9 6.1,-4 c 2.1,-2.3 4.8,-4 6.1,-4 c 1.2,0 2.9,-0.9 3.9,-2 c 0.9,-1.1 3.6,-2 6,-2 c 2.4,0 5.1,-0.9 6,-2 c 0.9,-1.1 2.7,-2 4,-2 c 1.3,0 3.1,-0.9 4,-2 c 0.9,-1.1 3.6,-2 6,-2 c 2.4,0 5.1,-0.9 6,-2 c 1.2,-1.3 4.3,-2 10,-2 c 5.7,0 8.8,-0.7 10,-2 c 1.3,-1.7 6.9,-2 34,-2 c 27.1,0 32.7,0.3 34,2 c 1.2,1.5 4.4,2 12,2 c 7.6,0 10.8,0.5 12,2 c 0.9,1.1 3.6,2 6,2 c 2.4,0 5.1,0.9 6,2 c 1.1,1.2 4,2 8,2 c 4,0 6.9,0.8 8,2 c 0.9,1.1 3.6,2 6,2 c 2.4,0 5.1,0.9 6,2 c 1.1,1.2 4,2 8,2 c 4,0 6.9,0.8 8,2 c 0.9,1.1 2.7,2 4,2 c 1.3,0 3.1,0.9 4,2 c 0.9,1.1 3.6,2 6,2 c 2.4,0 5.1,0.9 6,2 c 0.9,1.1 3.6,2 6,2 c 2.4,0 5.1,0.9 6,2 c 0.9,1.1 2.7,2 4,2 c 1.3,0 3.1,0.9 4,2 c 0.9,1.1 2.7,2 4,2 c 1.3,0 3.1,0.9 4,2 c 0.9,1.1 3.6,2 6,2 c 2.4,0 5.1,0.9 6,2 c 0.9,1.1 2.7,2 4,2 c 1.3,0 3.1,0.9 4,2 c 0.9,1.1 2.7,2 4,2 c 1.3,0 3.1,0.9 4,2 c 0.9,1.1 2.7,2 4,2 c 1.3,0 3.1,0.9 4,2 c 0.9,1.1 2.7,2 4,2 c 1.3,0 3.1,0.9 4,2 c 0.9,1.1 2.7,2 4,2 c 1.3,0 3.1,0.9 4,2 c 0.9,1.1 3.6,2 6,2 c 2.4,0 5.1,0.9 6,2 c 0.9,1.1 3.6,2 6,2 c 2.4,0 5.1,0.9 6,2 c 0.9,1.1 2.7,2 3.9,2 c 1.3,0 4,1.7 6.1,4 c 2.7,2.8 5.1,4 8.1,4 c 2.3,0 4.9,0.9 5.9,2 c 0.9,1.1 2.7,2 4,2 c 1.3,0 3.1,0.9 4,2 c 0.9,1.1 2.7,2 4,2 c 1.3,0 3.1,0.9 4,2 c 0.9,1.1 2.7,2 4,2 c 1.3,0 3.1,0.9 4,2 c 0.9,1.1 2.7,2 4,2 c 1.3,0 3.1,0.9 4,2 c 0.9,1.1 2.7,2 4,2 c 1.3,0 3.1,0.9 4,2 c 0.9,1.1 2.7,2 4,2 c 1.3,0 3.1,0.9 4,2 c 0.9,1.1 3.6,2 6,2 c 2.4,0 5.1,0.9 6,2 c 0.9,1.1 2.7,2 3.9,2 c 1.3,0 4,1.7 6.1,4 c 2.7,2.8 5.1,4 8.1,4 c 2.3,0 4.9,0.9 5.9,2 c 0.9,1.1 2.7,2 3.9,2 c 1.3,0 4,1.7 6.1,4 c 2.7,2.8 5.1,4 8.1,4 c 2.3,0 4.9,0.9 5.9,2 c 0.9,1.1 3.6,2 6,2 c 2.4,0 5.1,0.9 6,2 c 0.9,1.1 2.7,2 4,2 c 1.3,0 3.1,0.9 4,2 c 0.9,1.1 2.7,2 4,2 c 1.3,0 3.1,0.9 4,2 c 0.9,1.1 3.6,2 6,2 c 2.4,0 5.1,0.9 6,2 c 0.9,1.1 3.6,2 6,2 c 2.4,0 5.1,0.9 6,2 c 0.9,1.1 2.7,2 4,2 c 1.3,0 3.1,0.9 4,2 c 0.9,1.1 3.6,2 6,2 c 2.4,0 5.1,0.9 6,2 c 0.9,1.1 3.6,2 6,2 c 2.4,0 5.1,0.9 6,2 c 0.9,1.1 2.7,2 4,2 c 1.3,0 3.1,0.9 4,2 c 0.9,1.1 3.6,2 6,2 c 2.4,0 5.1,0.9 6,2 c 1.2,1.3 4.3,2 10,2 c 5.7,0 8.8,0.7 10,2 c 0.9,1.1 2.7,2 4,2 c 1.3,0 3.1,0.9 4,2 c 0.9,1.1 2.7,2 4,2 c 1.3,0 3.1,0.9 4,2 c 1.2,1.5 4.4,2 12,2 c 7.6,0 10.8,0.5 12,2 c 0.9,1.1 3.6,2 6,2 c 2.4,0 5.1,0.9 6,2 c 0.9,1.1 3.6,2 6,2 c 2.4,0 5.1,0.9 6,2 c 1.3,1.6 4.9,2 16,2 c 11.1,0 14.7,0.4 16,2 c 1.2,1.5 4.7,2 14,2 c 9.3,0 12.8,0.5 14,2 c 1.5,1.7 7.7,2 42,2 c 34.3,0 40.5,-0.3 42,-2 c 1.2,-1.5 4.4,-2 12,-2 c 7.6,0 10.8,-0.5 12,-2 c 1.3,-1.6 4.9,-2 16,-2 c 11.1,0 14.7,-0.4 16,-2 c 0.9,-1.1 3.6,-2 6,-2 c 2.4,0 5.1,-0.9 6,-2 c 0.9,-1.1 3.6,-2 6,-2 c 2.4,0 5.1,-0.9 6,-2 c 1.2,-1.5 4.4,-2 12,-2 c 7.6,0 10.8,-0.5 12,-2 c 0.9,-1.1 2.7,-2 4,-2 c 1.3,0 3.1,-0.9 4,-2 c 0.9,-1.1 2.7,-2 4,-2 c 1.3,0 3.1,-0.9 4,-2 c 0.9,-1.1 3.6,-2 6,-2 c 2.4,0 5.1,-0.9 6,-2 c 0.9,-1.1 3.6,-2 6,-2 c 2.4,0 5.1,-0.9 6,-2 c 0.9,-1.1 2.7,-2 4,-2 c 1.3,0 3.1,-0.9 4,-2 c 0.9,-1.1 2.7,-2 4,-2 c 1.3,0 3.1,-0.9 4,-2 c 0.9,-1.1 3.6,-2 5.9,-2 c 3.1,0 5.5,-1.2 8.1,-4 c 2.1,-2.3 4.8,-4 6.1,-4 c 1.2,0 2.9,-0.9 3.9,-2 c 0.9,-1.1 3.6,-2 6,-2 c 2.4,0 5.1,-0.9 6,-2 c 0.9,-1.1 2.7,-2 3.9,-2 c 1.3,0 4,-1.9 6.1,-4 c 2.1,-2.3 4.8,-4 6.1,-4 c 1.2,0 2.9,-0.9 3.9,-2 c 0.9,-1.1 2.7,-2 3.9,-2 c 1.3,0 4,-1.9 6.1,-4 c 2.1,-2.3 4.8,-4 6,-4 c 1.2,0 3.9,-1.9 6,-4 c 2.1,-2.3 4.8,-4 6,-4 c 1.2,0 3.9,-1.9 6,-4 c 2.1,-2.3 4.8,-4 6,-4 c 1.2,0 3.9,-1.9 6,-4 c 2.1,-2.3 4.8,-4 6,-4 c 1.1,0 5.6,-3.6 10,-8 c 4.4,-4.4 8.8,-8 10,-8 c 1.2,0 5.6,-3.6 10,-8 c 4.4,-4.4 8.8,-8 10,-8 c 1.2,0 4.8,-2.7 8,-6 c 3.2,-3.3 6.8,-6 8,-6 c 2.7,0 144,-141.3 144,-144 c 0,-1.2 3.6,-5.6 8,-10 c 7.5,-7.3 8,-8.3 8,-14 c 0,-5.6 -0.5,-6.7 -7.1,-13.1 c -3.9,-3.9 -7.9,-6.9 -9.1,-6.9 c -1.1,0 -4.7,-2.7 -7.9,-6 c -3.2,-3.3 -6.8,-6 -8,-6 c -1.2,0 -5.6,-3.6 -10,-8 c -4.4,-4.4 -8.9,-8 -10,-8 c -1.2,0 -3.9,-1.9 -6,-4 c -2.1,-2.3 -4.8,-4 -6,-4 c -1.2,0 -3.9,-1.9 -6,-4 c -2.1,-2.3 -4.8,-4 -6,-4 c -1.1,0 -5.6,-3.6 -10,-8 c -4.4,-4.4 -8.9,-8 -10,-8 c -1.2,0 -3.9,-1.9 -6,-4 c -2.1,-2.3 -4.8,-4 -6,-4 c -1.2,0 -3.9,-1.9 -6,-4 c -2.1,-2.3 -4.8,-4 -6,-4 c -1.1,0 -5.6,-3.6 -10,-8 c -4.4,-4.4 -8.8,-8 -10,-8 c -1.2,0 -4.8,-2.7 -8,-6 c -3.2,-3.3 -6.8,-6 -8,-6 c -1.2,0 -3.9,-1.9 -6,-4 c -2.1,-2.3 -4.8,-4 -6,-4 c -1.2,0 -4.8,-2.7 -8,-6 c -3.2,-3.3 -6.8,-6 -8,-6 c -1.2,0 -3.9,-1.9 -6,-4 c -2.1,-2.3 -4.8,-4 -6,-4 c -1.2,0 -3.9,-1.9 -6,-4 c -2.1,-2.3 -4.8,-4 -6,-4 c -1.2,0 -4.8,-2.7 -8,-6 c -3.2,-3.3 -6.8,-6 -8,-6 c -1.2,0 -4.8,-2.7 -8,-6 c -3.2,-3.3 -6.8,-6 -8,-6 c -1.2,0 -3.9,-1.9 -6,-4 c -2.1,-2.3 -4.8,-4 -6,-4 c -1.2,0 -3.9,-1.9 -6,-4 c -2.1,-2.3 -4.8,-4 -6,-4 c -1.2,0 -4.8,-2.7 -8,-6 c -4.5,-4.7 -6.9,-6 -10.1,-6 c -2.3,0 -4.9,-0.9 -5.9,-2 c -0.9,-1.1 -2.7,-2 -4,-2 c -1.3,0 -3.1,0.9 -4,2 c -0.9,1.1 -2.7,2 -3.9,2 c -2.8,0 -12.1,9.3 -12.1,12.1 c 0,1.1 -4.5,6.4 -10,11.9 c -5.5,5.5 -10,10.8 -10,12 c 0,2.7 -81.3,84 -84,84 c -1.2,0 -4.8,2.7 -8,6 c -3.2,3.3 -6.9,6 -8.1,6 c -1.2,0 -2.9,0.9 -3.9,2 c -0.9,1.1 -2.7,2 -3.9,2 c -1.2,0 -4.9,2.7 -8.1,6 c -3.2,3.3 -6.9,6 -8.1,6 c -1.2,0 -2.9,0.9 -3.9,2 c -0.9,1.1 -2.7,2 -3.9,2 c -1.3,0 -4,1.7 -6.1,4 c -2.1,2.1 -4.8,4 -6.1,4 c -1.2,0 -2.9,0.9 -3.9,2 c -0.9,1.1 -3.6,2 -5.9,2 c -3.1,0 -5.5,1.2 -8.1,4 c -2.1,2.1 -4.8,4 -6.1,4 c -1.2,0 -2.9,0.9 -3.9,2 c -0.9,1.1 -3.6,2 -6,2 c -2.4,0 -5.1,0.9 -6,2 c -0.9,1.1 -2.7,2 -4,2 c -1.3,0 -3.1,0.9 -4,2 c -0.9,1.1 -3.6,2 -6,2 c -2.4,0 -5.1,0.9 -6,2 c -1.2,1.5 -4.7,2 -14,2 c -9.3,0 -12.8,0.5 -14,2 c -1.2,1.5 -4.7,2 -14,2 c -9.3,0 -12.8,-0.5 -14,-2 c -1.3,-1.6 -5.3,-2 -20,-2 c -14.7,0 -18.7,-0.4 -20,-2 c -0.9,-1.1 -3.6,-2 -6,-2 c -2.4,0 -5.1,-0.9 -6,-2 c -1.1,-1.2 -4,-2 -8,-2 c -4,0 -6.9,-0.8 -8,-2 c -1.1,-1.2 -4,-2 -8,-2 c -4,0 -6.9,-0.8 -8,-2 c -1.1,-1.2 -4,-2 -8,-2 c -4,0 -6.9,-0.8 -8,-2 c -0.9,-1.1 -2.7,-2 -4,-2 c -1.3,0 -3.1,-0.9 -4,-2 c -1.1,-1.2 -4,-2 -8,-2 c -4,0 -6.9,-0.8 -8,-2 c -0.9,-1.1 -2.7,-2 -4,-2 c -1.3,0 -3.1,-0.9 -4,-2 c -0.9,-1.1 -2.7,-2 -4,-2 c -1.3,0 -3.1,-0.9 -4,-2 c -0.9,-1.1 -2.7,-2 -4,-2 c -1.3,0 -3.1,-0.9 -4,-2 c -1.1,-1.2 -4,-2 -8,-2 c -4,0 -6.9,-0.8 -8,-2 c -0.9,-1.1 -2.7,-2 -4,-2 c -1.3,0 -3.1,-0.9 -4,-2 c -0.9,-1.1 -2.7,-2 -4,-2 c -1.3,0 -3.1,-0.9 -4,-2 c -0.9,-1.1 -3.6,-2 -6,-2 c -2.4,0 -5.1,-0.9 -6,-2 c -0.9,-1.1 -2.7,-2 -4,-2 c -1.3,0 -3.1,-0.9 -4,-2 c -0.9,-1.1 -2.7,-2 -4,-2 c -1.3,0 -3.1,-0.9 -4,-2 c -0.9,-1.1 -2.7,-2 -4,-2 c -1.3,0 -3.1,-0.9 -4,-2 c -0.9,-1.1 -3.6,-2 -6,-2 c -2.4,0 -5.1,-0.9 -6,-2 c -0.9,-1.1 -2.7,-2 -4,-2 c -1.3,0 -3.1,-0.9 -4,-2 c -0.9,-1.1 -2.7,-2 -4,-2 c -1.3,0 -3.1,-0.9 -4,-2 c -0.9,-1.1 -3.6,-2 -6,-2 c -2.4,0 -5.1,-0.9 -6,-2 c -0.9,-1.1 -2.7,-2 -3.9,-2 c -1.3,0 -4,-1.9 -6.1,-4 c -3.2,-3.3 -4.9,-4 -10.1,-4 c -3.9,0 -6.8,-0.8 -7.9,-2 c -0.9,-1.1 -2.7,-2 -3.9,-2 c -1.3,0 -4,-1.9 -6.1,-4 c -2.7,-2.8 -5.1,-4 -8.1,-4 c -2.3,0 -4.9,-0.9 -5.9,-2 c -0.9,-1.1 -2.7,-2 -4,-2 c -1.3,0 -3.1,-0.9 -4,-2 c -0.9,-1.1 -2.7,-2 -4,-2 c -1.3,0 -3.1,-0.9 -4,-2 c -0.9,-1.1 -2.7,-2 -4,-2 c -1.3,0 -3.1,-0.9 -4,-2 c -0.9,-1.1 -3.6,-2 -6,-2 c -2.4,0 -5.1,-0.9 -6,-2 c -0.9,-1.1 -2.7,-2 -4,-2 c -1.3,0 -3.1,-0.9 -4,-2 c -0.9,-1.1 -2.7,-2 -4,-2 c -1.3,0 -3.1,-0.9 -4,-2 c -1.1,-1.2 -4,-2 -8,-2 c -4,0 -6.9,-0.8 -8,-2 c -0.9,-1.1 -2.7,-2 -4,-2 c -1.3,0 -3.1,-0.9 -4,-2 c -0.9,-1.1 -2.7,-2 -4,-2 c -1.3,0 -3.1,-0.9 -4,-2 c -0.9,-1.1 -3.6,-2 -6,-2 c -2.4,0 -5.1,-0.9 -6,-2 c -1.1,-1.2 -4,-2 -7.9,-2 c -5.2,0 -6.9,-0.7 -10.1,-4 c -2.1,-2.3 -4.8,-4 -6.1,-4 c -1.2,0 -2.9,-0.9 -3.9,-2 c -1.2,-1.3 -4.3,-2 -10,-2 c -5.7,0 -8.8,-0.7 -10,-2 c -0.9,-1.1 -2.7,-2 -4,-2 c -1.3,0 -3.1,-0.9 -4,-2 c -0.9,-1.1 -3.6,-2 -6,-2 c -2.4,0 -5.1,-0.9 -6,-2 c -1.1,-1.2 -4,-2 -8,-2 c -4,0 -6.9,-0.8 -8,-2 c -1.2,-1.3 -4.3,-2 -10,-2 c -5.7,0 -8.8,-0.7 -10,-2 c -0.9,-1.1 -3.6,-2 -6,-2 c -2.4,0 -5.1,-0.9 -6,-2 c -1.2,-1.3 -4.3,-2 -10,-2 c -5.7,0 -8.8,-0.7 -10,-2 c -1.2,-1.5 -4.4,-2 -12,-2 c -7.6,0 -10.8,-0.5 -12,-2 c -1.5,-1.7 -9.1,-2 -54,-2 c -44.9,0 -52.5,0.3 -54,2 z"/>
  <path d="M 464.3,634 c -1.3,1.7 -6.7,2 -32,2 c -25.3,0 -30.7,0.3 -32,2 c -1.2,1.5 -4.7,2 -14,2 c -9.3,0 -12.8,0.5 -14,2 c -0.9,1.1 -2.7,2 -4,2 c -1.3,0 -3.1,0.9 -4,2 c -1.2,1.3 -4.3,2 -10,2 c -5.7,0 -8.8,0.7 -10,2 c -1.1,1.2 -4,2 -8,2 c -4,0 -6.9,0.8 -8,2 c -0.9,1.1 -3.6,2 -6,2 c -2.4,0 -5.1,0.9 -6,2 c -0.9,1.1 -3.6,2 -6,2 c -2.4,0 -5.1,0.9 -6,2 c -0.9,1.1 -3.6,2 -6,2 c -2.4,0 -5.1,0.9 -6,2 c -0.9,1.1 -2.7,2 -4,2 c -1.3,0 -3.1,0.9 -4,2 c -0.9,1.1 -2.7,2 -4,2 c -1.3,0 -3.1,0.9 -4,2 c -0.9,1.1 -3.6,2 -6,2 c -2.4,0 -5.1,0.9 -6,2 c -0.9,1.1 -3.6,2 -6,2 c -2.4,0 -5.1,0.9 -6,2 c -0.9,1.1 -2.7,2 -4,2 c -1.3,0 -3.1,0.9 -4,2 c -0.9,1.1 -2.7,2 -4,2 c -1.3,0 -3.1,0.9 -4,2 c -0.9,1.1 -2.7,2 -3.9,2 c -1.3,0 -4,1.7 -6.1,4 c -2.1,2.1 -4.8,4 -6.1,4 c -1.2,0 -2.9,0.9 -3.9,2 c -0.9,1.1 -2.7,2 -4,2 c -1.3,0 -3.1,0.9 -4,2 c -0.9,1.1 -2.7,2 -3.9,2 c -1.2,0 -4.9,2.7 -8.1,6 c -3.2,3.3 -6.8,6 -8,6 c -1.2,0 -4.8,2.7 -8,6 c -3.2,3.3 -6.8,6 -8,6 c -1.1,0 -11.1,8.9 -22,20 c -10.9,10.9 -20.9,20 -22,20 c -2.7,0 -24,21.5 -24,24.1 c 0,1.2 -0.9,2.9 -2,3.9 c -1.1,0.9 -2,2.7 -2,3.9 c 0,1.2 -2.7,4.9 -6,8.1 c -3.3,3.2 -6,6.8 -6,8 c 0,1.2 -1.7,3.9 -4,6 c -2.1,2.1 -4,4.8 -4,6 c 0,1.2 -1.7,3.9 -4,6 c -2.1,2.1 -4,4.8 -4,6 c 0,1.2 -1.7,3.9 -4,6 c -2.1,2.1 -4,4.8 -4,6.1 c 0,1.2 -0.9,2.9 -2,3.9 c -1.1,0.9 -2,2.7 -2,4 c 0,1.3 -0.9,3.1 -2,4 c -1.1,0.9 -2,2.7 -2,3.9 c 0,1.3 -1.7,4 -4,6.1 c -2.8,2.7 -4,5.1 -4,8.1 c 0,2.3 -0.9,4.9 -2,5.9 c -1.1,0.9 -2,2.7 -2,3.9 c 0,1.3 -1.7,4 -4,6.1 c -2.8,2.7 -4,5.1 -4,8.1 c 0,2.3 -0.9,4.9 -2,5.9 c -1.1,0.9 -2,3.6 -2,6 c 0,2.4 -0.9,5.1 -2,6 c -1.1,0.9 -2,2.7 -2,4 c 0,1.3 -0.9,3.1 -2,4 c -1.1,0.9 -2,2.7 -2,4 c 0,1.3 -0.9,3.1 -2,4 c -1.2,1.1 -2,4 -2,8 c 0,4 -0.8,6.9 -2,8 c -1.1,0.9 -2,2.7 -2,4 c 0,1.3 -0.9,3.1 -2,4 c -1.1,0.9 -2,3.6 -2,6 c 0,2.4 -0.9,5.1 -2,6 c -1.6,1.3 -2,4.9 -2,16 c 0,11.1 -0.4,14.7 -2,16 c -1.1,0.9 -2,3.6 -2,6 c 0,2.4 -0.9,5.1 -2,6 c -3.1,2.5 -3.1,1237.5 0,1240 c 1.1,0.9 2,2.7 2,3.9 c 0,1.3 1.3,3.6 3.1,5.2 c 3.1,2.9 3.1,2.9 141.2,2.9 c 121.1,0 138.3,-0.3 139.7,-2 c 0.9,-1.1 2.7,-2 3.9,-2 c 1.3,0 3.6,-1.3 5.2,-3.1 c 2.9,-3.1 2.9,-3.1 2.9,-551.2 c 0,-485.6 0.3,-548.3 2,-549.7 c 1.6,-1.3 2,-5.6 2,-22 c 0,-16.4 0.4,-20.7 2,-22 c 1.1,-0.9 2,-3.6 2,-6 c 0,-2.4 0.9,-5.1 2,-6 c 1.3,-1.2 2,-4.3 2,-10 c 0,-5.7 0.7,-8.8 2,-10 c 1.2,-1.1 2,-4 2,-8 c 0,-4 0.8,-6.9 2,-8 c 1.1,-0.9 2,-3.6 2,-6 c 0,-2.4 0.9,-5.1 2,-6 c 1.1,-0.9 2,-2.7 2,-4 c 0,-1.3 0.9,-3.1 2,-4 c 1.1,-0.9 2,-3.6 2,-6 c 0,-2.4 0.9,-5.1 2,-6 c 1.1,-0.9 2,-2.7 2,-3.9 c 0,-1.3 1.9,-4 4,-6.1 c 2.3,-2.1 4,-4.8 4,-6.1 c 0,-1.2 0.9,-2.9 2,-3.9 c 1.1,-0.9 2,-2.7 2,-4 c 0,-1.3 0.9,-3.1 2,-4 c 1.1,-0.9 2,-2.7 2,-3.9 c 0,-2.8 21.3,-24.1 24.1,-24.1 c 1.1,0 4.7,-2.7 7.9,-6 c 3.2,-3.3 6.8,-6 8,-6 c 1.2,0 4.8,-2.7 8,-6 c 3.2,-3.3 6.9,-6 8.1,-6 c 1.2,0 2.9,-0.9 3.9,-2 c 0.9,-1.1 2.7,-2 3.9,-2 c 1.3,0 4,-1.9 6.1,-4 c 2.1,-2.3 4.8,-4 6.1,-4 c 1.2,0 2.9,-0.9 3.9,-2 c 1.2,-1.3 4.3,-2 10,-2 c 5.7,0 8.8,-0.7 10,-2 c 0.9,-1.1 3.6,-2 6,-2 c 2.4,0 5.1,-0.9 6,-2 c 1.5,-1.7 7.3,-2 38,-2 c 30.7,0 36.5,0.3 38,2 c 1.1,1.2 4,2 8,2 c 4,0 6.9,0.8 8,2 c 1.1,1.2 4,2 8,2 c 4,0 6.9,0.8 8,2 c 0.9,1.1 2.7,2 3.9,2 c 1.3,0 4,1.7 6.1,4 c 2.7,2.8 5.1,4 8.1,4 c 2.3,0 4.9,0.9 5.9,2 c 0.9,1.1 2.7,2 3.9,2 c 1.3,0 4,1.7 6.1,4 c 2.1,2.1 4.8,4 5.9,4 c 2.8,0 48.1,45.3 48.1,48.1 c 0,1.1 1.9,3.7 4,5.9 c 2.3,2.1 4,4.8 4,6.1 c 0,1.2 0.9,2.9 2,3.9 c 1.1,0.9 2,2.7 2,4 c 0,1.3 0.9,3.1 2,4 c 1.1,0.9 2,2.7 2,4 c 0,1.3 0.9,3.1 2,4 c 1.1,0.9 2,2.7 2,4 c 0,1.3 0.9,3.1 2,4 c 1.5,1.2 2,4.7 2,14 c 0,9.3 0.5,12.8 2,14 c 1.2,1.1 2,4 2,8 c 0,4 0.8,6.9 2,8 c 1.1,0.9 2,3.6 2,6 c 0,2.4 0.9,5.1 2,6 c 1.7,1.5 2,47.7 2,402 c 0,354.3 0.3,400.5 2,402 c 1.5,1.2 2,4.4 2,12 c 0,7.6 0.5,10.8 2,12 c 1.1,0.9 2,3.6 2,6 c 0,2.4 0.9,5.1 2,6 c 1.5,1.2 2,4.4 2,12 c 0,7.6 0.5,10.8 2,12 c 1.3,1.2 2,4.3 2,10 c 0,5.7 0.7,8.8 2,10 c 1.1,0.9 2,3.6 2,6 c 0,2.4 0.9,5.1 2,6 c 1.1,0.9 2,3.6 2,6 c 0,2.4 0.9,5.1 2,6 c 1.2,1.1 2,4 2,8 c 0,4 0.8,6.9 2,8 c 1.1,0.9 2,2.7 2,4 c 0,1.3 0.9,3.1 2,4 c 1.1,0.9 2,2.7 2,4 c 0,1.3 0.9,3.1 2,4 c 1.1,0.9 2,3.6 2,6 c 0,2.4 0.9,5.1 2,6 c 1.1,0.9 2,3.6 2,5.9 c 0,3.1 1.2,5.5 4,8.1 c 2.3,2.1 4,4.8 4,6.1 c 0,1.2 0.9,2.9 2,3.9 c 1.1,0.9 2,3.6 2,6 c 0,2.4 0.9,5.1 2,6 c 1.1,0.9 2,2.7 2,3.9 c 0,1.3 1.9,4 4,6.1 c 2.3,2.1 4,4.8 4,6.1 c 0,1.2 0.9,2.9 2,3.9 c 1.1,0.9 2,2.7 2,3.9 c 0,1.3 1.9,4 4,6.1 c 2.3,2.1 4,4.8 4,6 c 0,1.1 3.6,5.6 8,10 c 4.4,4.4 8,8.8 8,10 c 0,1.2 3.6,5.6 8,10 c 4.4,4.4 8,8.9 8,10 c 0,1.2 1.9,3.9 4,6 c 2.3,2.1 4,4.8 4,6 c 0,2.7 21.3,24 24.1,24 c 1.1,0 4.5,2.7 7.9,6 c 3.2,3.2 7.1,6 8.5,6.3 c 1.6,0.3 2.9,1.6 3.2,3.1 c 0.7,3.6 5.5,8.7 8.3,8.7 c 1.2,0 4.8,2.7 8,6 c 3.2,3.3 6.8,6 8,6 c 1.2,0 4.8,2.7 8,6 c 3.2,3.3 6.9,6 8.1,6 c 1.2,0 2.9,0.9 3.9,2 c 0.9,1.1 2.7,2 3.9,2 c 1.2,0 4.9,2.7 8.1,6 c 3.2,3.3 6.9,6 8.1,6 c 1.2,0 2.9,0.9 3.9,2 c 0.9,1.1 3.6,2 5.9,2 c 3.1,0 5.5,1.2 8.1,4 c 2.7,2.8 5.1,4 8.1,4 c 2.3,0 4.9,0.9 5.9,2 c 0.9,1.1 2.7,2 4,2 c 1.3,0 3.1,0.9 4,2 c 0.9,1.1 2.7,2 4,2 c 1.3,0 3.1,0.9 4,2 c 0.9,1.1 2.7,2 4,2 c 1.3,0 3.1,0.9 4,2 c 0.9,1.1 3.6,2 6,2 c 2.4,0 5.1,0.9 6,2 c 0.9,1.1 2.7,2 4,2 c 1.3,0 3.1,0.9 4,2 c 0.9,1.1 2.7,2 4,2 c 1.3,0 3.1,0.9 4,2 c 1.2,1.3 4.3,2 10,2 c 5.7,0 8.8,0.7 10,2 c 0.9,1.1 2.7,2 4,2 c 1.3,0 3.1,0.9 4,2 c 0.9,1.1 2.7,2 4,2 c 1.3,0 3.1,0.9 4,2 c 1.2,1.5 4.4,2 12,2 c 7.6,0 10.8,0.5 12,2 c 1.2,1.5 4.4,2 12,2 c 7.6,0 10.8,0.5 12,2 c 1.1,1.2 4,2 8,2 c 4,0 6.9,0.8 8,2 c 2.5,3.1 125.5,3.1 128,0 c 1.1,-1.2 4,-2 8,-2 c 4,0 6.9,-0.8 8,-2 c 1.2,-1.5 4.4,-2 12,-2 c 7.6,0 10.8,-0.5 12,-2 c 1.2,-1.3 4.3,-2 10,-2 c 5.7,0 8.8,-0.7 10,-2 c 0.9,-1.1 3.6,-2 6,-2 c 2.4,0 5.1,-0.9 6,-2 c 0.9,-1.1 3.6,-2 6,-2 c 2.4,0 5.1,-0.9 6,-2 c 1.1,-1.2 4,-2 8,-2 c 4,0 6.9,-0.8 8,-2 c 0.9,-1.1 2.7,-2 4,-2 c 1.3,0 3.1,-0.9 4,-2 c 0.9,-1.1 2.7,-2 4,-2 c 1.3,0 3.1,-0.9 4,-2 c 1.1,-1.2 4,-2 8,-2 c 4,0 6.9,-0.8 8,-2 c 0.9,-1.1 2.7,-2 4,-2 c 1.3,0 3.1,-0.9 4,-2 c 0.9,-1.1 2.7,-2 4,-2 c 1.3,0 3.1,-0.9 4,-2 c 0.9,-1.1 3.6,-2 6,-2 c 2.4,0 5.1,-0.9 6,-2 c 0.9,-1.1 2.7,-2 3.9,-2 c 1.3,0 4,-1.9 6.1,-4 c 2.1,-2.3 4.8,-4 6.1,-4 c 1.2,0 2.9,-0.9 3.9,-2 c 0.9,-1.1 2.7,-2 3.9,-2 c 1.3,0 4,-1.7 6.1,-4 c 2.1,-2.1 4.8,-4 6.1,-4 c 1.2,0 2.9,-0.9 3.9,-2 c 0.9,-1.1 2.7,-2 4,-2 c 1.3,0 3.1,-0.9 4,-2 c 0.9,-1.1 2.7,-2 3.9,-2 c 1.2,0 4.9,-2.7 8.1,-6 c 3.2,-3.3 6.8,-6 8,-6 c 1.2,0 4.8,-2.7 8,-6 c 3.2,-3.3 6.8,-6 8,-6 c 1.2,0 4.8,-2.7 8,-6 c 3.2,-3.3 6.8,-6 8,-6 c 2.7,0 52,-49.3 52,-52.1 c 0,-1.1 2.7,-4.7 6,-7.9 c 3.3,-3.2 6,-6.8 6,-8 c 0,-1.2 2.7,-4.8 6,-8 c 3.3,-3.2 6,-6.9 6,-8.1 c 0,-1.2 0.9,-2.9 2,-3.9 c 1.1,-0.9 2,-2.7 2,-3.9 c 0,-1.2 2.7,-4.9 6,-8.1 c 3.3,-3.2 6,-6.9 6,-8.1 c 0,-1.2 0.9,-2.9 2,-3.9 c 1.1,-0.9 2,-2.7 2,-3.9 c 0,-1.3 1.9,-4 4,-6.1 c 2.3,-2.1 4,-4.8 4,-6.1 c 0,-1.2 0.9,-2.9 2,-3.9 c 1.1,-0.9 2,-3.6 2,-5.9 c 0,-3.1 1.2,-5.5 4,-8.1 c 2.8,-2.7 4,-5.1 4,-8.1 c 0,-2.3 0.9,-4.9 2,-5.9 c 1.1,-0.9 2,-2.7 2,-4 c 0,-1.3 0.9,-3.1 2,-4 c 1.1,-0.9 2,-3.6 2,-6 c 0,-2.4 0.9,-5.1 2,-6 c 1.1,-0.9 2,-3.6 2,-6 c 0,-2.4 0.9,-5.1 2,-6 c 1.1,-0.9 2,-3.6 2,-6 c 0,-2.4 0.9,-5.1 2,-6 c 1.1,-0.9 2,-3.6 2,-6 c 0,-2.4 0.9,-5.1 2,-6 c 1.2,-1.1 2,-4 2,-8 c 0,-4 0.8,-6.9 2,-8 c 1.2,-1.1 2,-4 2,-8 c 0,-4 0.8,-6.9 2,-8 c 1.3,-1.2 2,-4.3 2,-10 c 0,-5.7 0.7,-8.8 2,-10 c 1.6,-1.3 2,-5.1 2,-18 c 0,-12.9 0.4,-16.7 2,-18 c 2.9,-2.5 3.1,-1229.5 0.1,-1232 c -1.1,-0.8 -2.1,-2.8 -2.4,-4.4 c -0.3,-1.9 -1.5,-3.1 -3.3,-3.3 c -1.6,-0.3 -3.6,-1.3 -4.4,-2.4 c -2.4,-2.8 -273.6,-2.8 -276,0 c -0.8,1.1 -2.8,2.1 -4.4,2.4 c -1.9,0.3 -3.1,1.5 -3.3,3.3 c -0.3,1.6 -1.3,3.6 -2.4,4.4 c -1.6,1.5 -1.9,79.6 -1.9,590 c 0,521.3 -0.3,588.5 -2,590 c -1.6,1.3 -2,5.1 -2,18 c 0,12.9 -0.4,16.7 -2,18 c -1.3,1.2 -2,4.3 -2,10 c 0,5.7 -0.7,8.8 -2,10 c -1.1,0.9 -2,2.7 -2,4 c 0,1.3 -0.9,3.1 -2,4 c -1.1,0.9 -2,3.6 -2,6 c 0,2.4 -0.9,5.1 -2,6 c -1.1,0.9 -2,3.6 -2,6 c 0,2.4 -0.9,5.1 -2,6 c -1.1,0.9 -2,2.7 -2,3.9 c 0,1.3 -1.7,4 -4,6.1 c -2.1,2.1 -4,4.8 -4,6 c 0,1.2 -2.7,4.8 -6,8 c -3.3,3.2 -6,6.8 -6,8 c 0,2.7 -5.5,8 -8.1,8 c -2.7,0 -7.9,5.5 -7.9,8.1 c 0,2.5 -5.5,7.9 -8.1,7.9 c -1.2,0 -3.7,1.7 -5.9,4 c -2.1,2.1 -4.8,4 -6.1,4 c -1.2,0 -2.9,0.9 -3.9,2 c -0.9,1.1 -2.7,2 -4,2 c -1.3,0 -3.1,0.9 -4,2 c -0.9,1.1 -2.7,2 -4,2 c -1.3,0 -3.1,0.9 -4,2 c -0.9,1.1 -2.7,2 -4,2 c -1.3,0 -3.1,0.9 -4,2 c -1.1,1.2 -4,2 -8,2 c -4,0 -6.9,0.8 -8,2 c -0.9,1.1 -2.7,2 -4,2 c -1.3,0 -3.1,0.9 -4,2 c -0.9,1.1 -3.6,2 -6,2 c -2.4,0 -5.1,0.9 -6,2 c -2.5,2.9 -73.5,2.9 -76,0 c -0.9,-1.1 -3.6,-2 -6,-2 c -2.4,0 -5.1,-0.9 -6,-2 c -0.9,-1.1 -2.7,-2 -4,-2 c -1.3,0 -3.1,-0.9 -4,-2 c -0.9,-1.1 -3.6,-2 -6,-2 c -2.4,0 -5.1,-0.9 -6,-2 c -0.9,-1.1 -3.6,-2 -6,-2 c -2.4,0 -5.1,-0.9 -6,-2 c -0.9,-1.1 -2.7,-2 -3.9,-2 c -1.3,0 -4,-1.9 -6.1,-4 c -2.1,-2.3 -4.8,-4 -6,-4 c -1.2,0 -4.8,-2.7 -8,-6 c -3.2,-3.3 -6.8,-6 -8,-6 c -2.8,0 -7.6,-5.1 -8.3,-8.7 c -0.3,-1.5 -1.6,-2.8 -3.1,-3.1 c -3.6,-0.7 -8.7,-5.5 -8.7,-8.3 c 0,-1.2 -2.7,-4.8 -6,-8 c -3.3,-3.2 -6,-6.9 -6,-8.1 c 0,-1.2 -0.9,-2.9 -2,-3.9 c -1.1,-0.9 -2,-2.7 -2,-4 c 0,-1.3 -0.9,-3.1 -2,-4 c -1.1,-0.9 -2,-2.7 -2,-4 c 0,-1.3 -0.9,-3.1 -2,-4 c -1.1,-0.9 -2,-2.7 -2,-4 c 0,-1.3 -0.9,-3.1 -2,-4 c -1.2,-1.1 -2,-4 -2,-8 c 0,-4 -0.8,-6.9 -2,-8 c -1.2,-1.1 -2,-4 -2,-8 c 0,-4 -0.8,-6.9 -2,-8 c -1.3,-1.2 -2,-4.3 -2,-10 c 0,-5.7 -0.7,-8.8 -2,-10 c -1.6,-1.3 -2,-5.6 -2,-22 c 0,-16.4 -0.4,-20.7 -2,-22 c -1.7,-1.5 -2,-47.7 -2,-402 c 0,-354.3 -0.3,-400.5 -2,-402 c -1.2,-1.1 -2,-4 -2,-8 c 0,-4 -0.8,-6.9 -2,-8 c -1.2,-1.1 -2,-4 -2,-8 c 0,-4 -0.8,-6.9 -2,-8 c -1.5,-1.2 -2,-4.7 -2,-14 c 0,-9.3 -0.5,-12.8 -2,-14 c -1.1,-0.9 -2,-3.6 -2,-6 c 0,-2.4 -0.9,-5.1 -2,-6 c -1.1,-0.9 -2,-2.7 -2,-4 c 0,-1.3 -0.9,-3.1 -2,-4 c -1.2,-1.1 -2,-4 -2,-8 c 0,-4 -0.8,-6.9 -2,-8 c -1.1,-0.9 -2,-3.6 -2,-6 c 0,-2.4 -0.9,-5.1 -2,-6 c -1.1,-0.9 -2,-2.7 -2,-4 c 0,-1.3 -0.9,-3.1 -2,-4 c -1.1,-0.9 -2,-2.7 -2,-4 c 0,-1.3 -0.9,-3.1 -2,-4 c -1.1,-0.9 -2,-3.6 -2,-6 c 0,-2.4 -0.9,-5.1 -2,-6 c -1.1,-0.9 -2,-2.7 -2,-4 c 0,-1.3 -0.9,-3.1 -2,-4 c -1.1,-0.9 -2,-2.7 -2,-4 c 0,-1.3 -0.9,-3.1 -2,-4 c -1.1,-0.9 -2,-2.7 -2,-4 c 0,-1.3 -0.9,-3.1 -2,-4 c -1.1,-0.9 -2,-2.7 -2,-3.9 c 0,-1.3 -1.7,-4 -4,-6.1 c -2.1,-2.1 -4,-4.8 -4,-6.1 c 0,-1.2 -0.9,-2.9 -2,-3.9 c -1.1,-0.9 -2,-2.7 -2,-3.9 c 0,-1.3 -1.7,-4 -4,-6.1 c -2.1,-2.1 -4,-4.8 -4,-6 c 0,-1.2 -1.7,-3.9 -4,-6 c -2.1,-2.1 -4,-4.8 -4,-6 c 0,-1.2 -1.7,-3.9 -4,-6 c -2.1,-2.1 -4,-4.8 -4,-6 c 0,-1.1 -3.6,-5.6 -8,-10 c -4.4,-4.4 -8,-8.8 -8,-10 c 0,-2.7 -33.3,-35.6 -36.7,-36.3 c -1.5,-0.3 -2.8,-1.6 -3.1,-3.1 c -0.7,-3.6 -5.3,-8.4 -8.7,-8.9 c -1.7,-0.3 -3.1,-1.7 -3.6,-3.7 c -0.5,-2 -1.9,-3.5 -3.6,-3.7 c -1.5,-0.3 -4.4,-2.1 -6.4,-4.4 c -2.1,-2.1 -4.8,-3.9 -6,-3.9 c -1.2,0 -4.8,-2.7 -8,-6 c -3.2,-3.3 -6.8,-6 -8,-6 c -1.2,0 -4.8,-2.7 -8,-6 c -3.2,-3.3 -6.8,-6 -8,-6 c -1.2,0 -4.8,-2.7 -8,-6 c -3.2,-3.3 -6.9,-6 -8.1,-6 c -1.2,0 -2.9,-0.9 -3.9,-2 c -0.9,-1.1 -2.7,-2 -3.9,-2 c -1.3,0 -4,-1.9 -6.1,-4 c -2.1,-2.3 -4.8,-4 -6.1,-4 c -1.2,0 -2.9,-0.9 -3.9,-2 c -0.9,-1.1 -3.6,-2 -6,-2 c -2.4,0 -5.1,-0.9 -6,-2 c -0.9,-1.1 -2.7,-2 -3.9,-2 c -1.3,0 -4,-1.9 -6.1,-4 c -2.7,-2.8 -5.1,-4 -8.1,-4 c -2.3,0 -4.9,-0.9 -5.9,-2 c -0.9,-1.1 -3.6,-2 -5.9,-2 c -3.1,0 -5.5,-1.2 -8.1,-4 c -2.7,-2.8 -5.1,-4 -8.1,-4 c -2.3,0 -4.9,-0.9 -5.9,-2 c -1.1,-1.2 -4,-2 -8,-2 c -4,0 -6.9,-0.8 -8,-2 c -0.9,-1.1 -3.6,-2 -6,-2 c -2.4,0 -5.1,-0.9 -6,-2 c -0.9,-1.1 -2.7,-2 -4,-2 c -1.3,0 -3.1,-0.9 -4,-2 c -1.2,-1.3 -4.3,-2 -10,-2 c -5.7,0 -8.8,-0.7 -10,-2 c -1.2,-1.3 -4.3,-2 -9.9,-2 c -7.5,0 -8.7,-0.4 -12.1,-4 c -3.7,-3.9 -4.3,-4 -16.1,-4 c -9.2,0 -12.7,-0.5 -13.9,-2 c -1.3,-1.6 -5.7,-2 -24,-2 c -18.3,0 -22.7,-0.4 -24,-2 c -1.3,-1.6 -6.3,-2 -28,-2 c -21.7,0 -26.7,0.4 -28,2 z"/>
  </g>
</svg>